<?xml version="1.0" encoding="utf-8"?>
<!-- Generator: Adobe Illustrator 25.2.1, SVG Export Plug-In . SVG Version: 6.00 Build 0)  -->
<svg version="1.1" id="Layer_1" xmlns="http://www.w3.org/2000/svg" xmlns:xlink="http://www.w3.org/1999/xlink" x="0px" y="0px"
	 viewBox="0 0 1200 1200" style="enable-background:new 0 0 1200 1200;" xml:space="preserve">
<style type="text/css">
	.st0{fill:#EAE42E;}
	.st1{fill:#FCE300;}
	.st2{fill:#FACA00;}
	.st3{fill:#ACB208;stroke:#ACB208;stroke-width:10;stroke-miterlimit:10;}
</style>
<path class="st0" d="M850.9,473.7c0,2,0.1,4.1,0.1,6.1c0,115.6,0,231.3,0,346.9c0,35.6-15.4,63.1-45.1,82.6
	c-14.8,9.7-31.3,14.6-49,14.6c-102.2,0.1-204.4,0.1-306.5,0c-41.3,0-79.7-29.3-90.2-69.2c-2.4-9.2-3.8-18.9-3.9-28.4
	c-0.3-69.9-0.2-139.9-0.2-209.8c0-2.2,0.1-4.4,0.1-6.6c1.7,0.3,3.4,0.6,5,0.9c0.6,0.3,1.1,0.9,1.7,1c25.7,2.4,51.4,5.3,77.2,7
	c15.3,1,30.8,0.4,46.2,0.2c12.4-0.1,24.8-0.3,37.1-1.1c17.2-1.1,34.5-1.6,51.5-4.4c25.5-4.1,50.9-8.9,75.9-15.1
	c44.4-11,86-28.9,123.9-54.8c27.5-18.8,51.3-41.3,71.1-68C847.5,475.1,849.2,474.4,850.9,473.7z"/>
<path class="st1" d="M845.9,475.9c-1.6,0.7-3.3,1.4-4.9,2.1c0-27.3,0.1-54.6,0-82c0-5.8,0-11.7-1.1-17.3
	c-3.9-20.1-12.9-37.6-28.2-51.4c-18.2-16.4-40.2-23.3-64.4-23.3c-92.6,0-185.2,0-277.8,0c-7.3,0-14.6,0.6-21.9,0.9
	c-21.6,1-39.6,10.4-54.9,25.1c-18.2,17.5-26.4,39.7-26.5,64.5c-0.3,72.1-0.1,144.3-0.1,216.4c-1.6-0.3-3.3-0.6-4.9-0.9
	c0-73.6-0.9-147.3,0.3-220.9c0.7-43.8,33-80,75.9-88.1c7-1.3,14.2-1.9,21.3-1.9c96.6-0.1,193.3,0,289.9-0.1c29.4,0,54.3,10,74,32
	c12.8,14.4,21.7,31.2,22.4,50.6C846,413,845.6,444.4,845.9,475.9z"/>
<path class="st2" d="M361.2,610.9c0-73.3-0.2-146.6,0.1-219.9c0.1-25.2,8.5-47.8,27-65.5c15.5-14.9,33.9-24.4,56-25.5
	c7.4-0.4,14.9-1,22.3-1c94.5-0.1,189-0.1,283.5,0c24.7,0,47.2,7,65.7,23.7c15.6,13.9,24.8,31.8,28.8,52.2c1.1,5.7,1.1,11.7,1.2,17.6
	c0.1,27.8,0,55.5,0,83.3c-19.8,26.7-43.6,49.3-71.1,68c-37.9,25.9-79.5,43.7-123.9,54.8c-25,6.2-50.5,11-75.9,15.1
	c-17,2.7-34.3,3.3-51.5,4.4c-12.3,0.8-24.7,0.9-37.1,1.1c-15.4,0.2-30.8,0.8-46.2-0.2c-25.8-1.7-51.5-4.6-77.2-7
	C362.3,611.8,361.8,611.2,361.2,610.9z"/>
<path class="st3" d="M356,608.8c0-71.3,0.6-142.7-0.2-214c-0.5-45.4,30.9-89.7,81.3-99.4c5.2-1,10.6-1.4,15.9-1.4
	c100.3-0.1,200.7-0.1,301-0.1c44.9,0,86.1,33.8,94.9,78c1.3,6.8,2,13.8,2.1,20.8c0.1,144.7,0.1,289.3,0.1,434
	c0,47.9-37.5,90.4-85.1,96.3c-4.6,0.6-9.3,0.9-13.9,0.9c-99.2,0.1-198.3,0-297.5,0c-49.3,0-91.1-36.5-97.6-85.4
	c-0.6-4.3-0.9-8.6-0.9-12.9C356,753.4,356,681.1,356,608.8z M845.9,475.9c-0.3-31.5,0.1-62.9-1.2-94.4c-0.8-19.3-9.6-36.2-22.4-50.6
	c-19.6-22-44.6-32-74-32c-96.6,0.1-193.3,0-289.9,0.1c-7.1,0-14.3,0.6-21.3,1.9c-42.9,8.1-75.2,44.3-75.9,88.1
	c-1.2,73.6-0.3,147.3-0.3,220.9c0,2.2-0.1,4.3-0.1,6.5c0,68.8-0.1,137.6,0.2,206.5c0,9.3,1.4,18.9,3.8,28
	c10.3,39.2,48,68.1,88.4,68.1c100.2,0.1,200.3,0.1,300.5,0c17.4,0,33.6-4.9,48.1-14.4c29.1-19.2,44.2-46.3,44.2-81.3
	c0.1-113.8,0-227.6,0-341.5C846.1,479.9,846,477.9,845.9,475.9z"/>
</svg>
